<svg xmlns="http://www.w3.org/2000/svg" xmlns:xlink="http://www.w3.org/1999/xlink" width="520" height="350" preserveAspectRatio="xMidYMid meet" version="1.1" viewBox="0 0 520 350"><defs><path id="b2DRV3kvEY" d="M40.1 264.83C68.75 304.95 115.96 343.86 142.92 345.6C169.88 347.33 182.92 344.73 222.92 314.29C262.92 283.85 271.62 277.1 325.53 264.82C379.45 252.53 417.71 244.72 449.01 243.85C480.32 242.98 512.5 209.06 513.37 182.11C514.24 155.15 514.23 131.67 462.06 103.84C409.89 76.02 335.1 100.37 288.14 85.58C241.19 70.79 172.49 7.32 149.88 5.58C127.27 3.84 112.48 10.8 94.22 33.4C75.96 56.01 89.88 99.49 94.22 128.18C98.56 156.87 95.26 163.79 82.13 171.21C69 178.64 40.1 154.02 22.91 171.21C5.72 188.41 11.45 224.71 40.1 264.83Z"/><linearGradient id="gradientb411aDe568" x1="386.97" x2="13.24" y1="114" y2="204.62" gradientUnits="userSpaceOnUse"><stop style="stop-color:#48e5eb;stop-opacity:1" offset="0%"/><stop style="stop-color:#bc88ff;stop-opacity:1" offset="49.1%"/><stop style="stop-color:#7b42c5;stop-opacity:1" offset="100%"/></linearGradient><path id="c6EddJgOXU" d="M24.5 254.9C53.15 295.02 100.36 333.93 127.32 335.67C154.28 337.4 167.32 334.8 207.32 304.36C247.32 273.92 256.02 267.17 309.93 254.89C363.85 242.6 402.11 234.79 433.41 233.92C464.72 233.05 496.9 199.13 497.77 172.18C498.64 145.22 498.63 121.74 446.46 93.91C394.29 66.09 319.5 90.44 272.54 75.65C225.59 60.86 156.89 -2.61 134.28 -4.35C111.67 -6.09 96.88 0.87 78.62 23.47C60.36 46.08 74.28 89.56 78.62 118.25C82.96 146.94 79.66 153.86 66.53 161.28C53.4 168.71 24.5 144.09 7.31 161.28C-9.88 178.48 -4.15 214.78 24.5 254.9Z"/><path id="a2mGlvCa7y" d="M148.23 237.51C170.85 222.82 174.23 186.18 202.49 175.67C230.76 165.16 255.63 162.9 299.71 180.99C343.8 199.07 395.8 194.55 413.89 180.99C431.98 167.42 446.92 138.74 460.24 138.03C469.64 139.21 482.4 146.67 481.07 172.09C479.74 197.5 479.06 231.36 470.37 237.51C461.67 243.66 443.33 243.66 413.89 247.67C384.46 251.69 312.5 267.74 312.5 267.74C312.5 267.74 270.36 276.44 244.94 299.18C207.48 329.28 171.36 347.34 164.67 346.67C134.57 346 120.52 346.67 83.06 313.23C45.6 279.78 20.85 245 14.83 209.54C8.81 174.09 21.61 175.67 21.61 175.67C29.3 186.45 23.87 206.99 60.05 229.6C96.23 252.21 125.62 252.2 148.23 237.51Z"/><linearGradient id="gradientb6qEXC8oqu" x1="-10.18" x2="428.76" y1="242.36" y2="220.66" gradientUnits="userSpaceOnUse"><stop style="stop-color:#8048d3;stop-opacity:1" offset="0%"/><stop style="stop-color:#5542df;stop-opacity:1" offset="37.2%"/><stop style="stop-color:#61ecbd;stop-opacity:1" offset="100%"/></linearGradient><path id="aokyEq2kR" d="M148.23 237.51C170.85 222.82 174.23 186.18 202.49 175.67C230.76 165.16 255.63 162.9 299.71 180.99C343.8 199.07 395.8 194.55 413.89 180.99C431.98 167.42 446.92 138.74 460.24 138.03C469.64 139.21 482.4 146.67 481.07 172.09C479.74 197.5 479.06 231.36 470.37 237.51C461.67 243.66 443.33 243.66 413.89 247.67C384.46 251.69 312.5 267.74 312.5 267.74C312.5 267.74 270.36 276.44 244.94 299.18C207.48 329.28 171.36 347.34 164.67 346.67C134.57 346 120.52 346.67 83.06 313.23C45.6 279.78 20.85 245 14.83 209.54C8.81 174.09 21.61 175.67 21.61 175.67C29.3 186.45 23.87 206.99 60.05 229.6C96.23 252.21 125.62 252.2 148.23 237.51Z"/><path id="e8eIrbvfNb" d="M92.51 210.42C129.9 196.51 123.82 156.51 122.08 126.07C120.34 95.64 120.34 65.2 137.73 58.24C155.12 51.29 178.6 41.72 217.73 64.33C256.86 86.94 291.65 88.68 291.65 88.68C291.65 88.68 238.6 69.55 183.82 23.46C129.03 -22.63 94.38 30.98 89.21 39.2C84.04 47.42 80.38 62.04 87.08 96.75C93.78 131.46 98.56 151.86 92.52 160.07C86.47 168.29 84.74 173.87 61.91 167.47C39.07 161.08 38.65 161.41 31.65 163.55C26.85 165.32 16.38 169.22 13.93 179.86C11.48 190.49 23.52 190.94 24.68 194.77C38.24 197.9 55.12 224.34 92.51 210.42Z"/><linearGradient id="gradientdWfgygTaS" x1="13.6" x2="304.72" y1="191.35" y2="62.08" gradientUnits="userSpaceOnUse"><stop style="stop-color:#fda47d;stop-opacity:1" offset="0%"/><stop style="stop-color:#f2509d;stop-opacity:1" offset="100%"/></linearGradient><path id="aLRSHdcPw" d="M92.51 210.42C129.9 196.51 123.82 156.51 122.08 126.07C120.34 95.64 120.34 65.2 137.73 58.24C155.12 51.29 178.6 41.72 217.73 64.33C256.86 86.94 291.65 88.68 291.65 88.68C291.65 88.68 238.6 69.55 183.82 23.46C129.03 -22.63 94.38 30.98 89.21 39.2C84.04 47.42 80.38 62.04 87.08 96.75C93.78 131.46 98.56 151.86 92.52 160.07C86.47 168.29 84.74 173.87 61.91 167.47C39.07 161.08 38.65 161.41 31.65 163.55C26.85 165.32 16.38 169.22 13.93 179.86C11.48 190.49 23.52 190.94 24.68 194.77C38.24 197.9 55.12 224.34 92.51 210.42Z"/></defs><g><g><g><g><use fill="url(#gradientb411aDe568)" opacity="1" xlink:href="#b2DRV3kvEY"/><g><use fill-opacity="0" stroke="#000" stroke-opacity="0" stroke-width="1" opacity="1" xlink:href="#b2DRV3kvEY"/></g></g><g><use fill="#000" fill-opacity="0" opacity="1" xlink:href="#c6EddJgOXU"/><g><use fill-opacity="0" stroke="#000" stroke-opacity="0" stroke-width="1" opacity="1" xlink:href="#c6EddJgOXU"/></g></g><g><use fill="url(#gradientb6qEXC8oqu)" opacity="1" xlink:href="#a2mGlvCa7y"/><g><use fill-opacity="0" stroke="#000" stroke-opacity="0" stroke-width="1" opacity="1" xlink:href="#a2mGlvCa7y"/></g></g><g><use fill="#000" fill-opacity="0" opacity="1" xlink:href="#aokyEq2kR"/><g><use fill-opacity="0" stroke="#000" stroke-opacity="0" stroke-width="1" opacity="1" xlink:href="#aokyEq2kR"/></g></g><g><use fill="url(#gradientdWfgygTaS)" opacity="1" xlink:href="#e8eIrbvfNb"/><g><use fill-opacity="0" stroke="#000" stroke-opacity="0" stroke-width="1" opacity="1" xlink:href="#e8eIrbvfNb"/></g></g><g><use fill="#000" fill-opacity="0" opacity="1" xlink:href="#aLRSHdcPw"/><g><use fill-opacity="0" stroke="#000" stroke-opacity="0" stroke-width="1" opacity="1" xlink:href="#aLRSHdcPw"/></g></g></g></g></g></svg>