<?xml version="1.0" encoding="UTF-8" standalone="no"?>
<!DOCTYPE svg PUBLIC "-//W3C//DTD SVG 1.1//EN" "http://www.w3.org/Graphics/SVG/1.1/DTD/svg11.dtd">
<svg version="1.1" xmlns="http://www.w3.org/2000/svg" xmlns:xlink="http://www.w3.org/1999/xlink" preserveAspectRatio="xMidYMid meet" viewBox="0 0 520 520" width="520" height="520"><defs><path d="M14.93 255.61C-2.26 272.81 3.47 309.11 32.12 349.23C60.77 389.35 107.98 428.26 134.94 430C161.9 431.73 174.94 429.13 214.94 398.69C254.94 368.25 263.64 361.5 317.55 349.22C371.47 336.93 409.73 329.12 441.03 328.25C472.34 327.38 504.52 293.46 505.39 266.51C506.26 239.55 506.25 216.07 454.08 188.24C401.91 160.42 327.12 184.77 280.16 169.98C233.21 155.19 164.51 91.72 141.9 89.98C119.29 88.24 104.5 95.2 86.24 117.8C67.98 140.41 81.9 183.89 86.24 212.58C90.58 241.27 87.28 248.19 74.15 255.61C61.02 263.04 32.12 238.42 14.93 255.61Z" id="a2s9sKoKu"></path><linearGradient id="gradientbfyz6j8jz" gradientUnits="userSpaceOnUse" x1="378.99" y1="198.4" x2="5.26" y2="289.02"><stop style="stop-color: #48e5eb;stop-opacity: 1" offset="0%"></stop><stop style="stop-color: #bc88ff;stop-opacity: 1" offset="49.1%"></stop><stop style="stop-color: #7b42c5;stop-opacity: 1" offset="100%"></stop></linearGradient><path d="M52.07 314C88.25 336.61 117.64 336.6 140.25 321.91C162.87 307.22 166.25 270.58 194.51 260.07C222.78 249.56 247.65 247.3 291.73 265.39C335.82 283.47 387.82 278.95 405.91 265.39C424 251.82 438.94 223.14 452.26 222.43C461.66 223.61 474.42 231.07 473.09 256.49C471.76 281.9 471.08 315.76 462.39 321.91C453.69 328.06 435.35 328.06 405.91 332.07C376.48 336.09 304.52 352.14 304.52 352.14C304.52 352.14 262.38 360.84 236.96 383.58C199.5 413.68 163.38 431.74 156.69 431.07C126.59 430.4 112.54 431.07 75.08 397.63C37.62 364.18 12.87 329.4 6.85 293.94C0.83 258.49 13.63 260.07 13.63 260.07C21.32 270.85 15.89 291.39 52.07 314Z" id="bKY5xge7"></path><linearGradient id="gradientcaq4I4W2" gradientUnits="userSpaceOnUse" x1="-18.16" y1="326.76" x2="420.78" y2="305.06"><stop style="stop-color: #8048d3;stop-opacity: 1" offset="0%"></stop><stop style="stop-color: #5542df;stop-opacity: 1" offset="37.2%"></stop><stop style="stop-color: #61ecbd;stop-opacity: 1" offset="100%"></stop></linearGradient><path d="M16.7 279.17C16.7 279.17 47.14 308.74 84.53 294.82C121.92 280.91 115.84 240.91 114.1 210.47C112.36 180.04 112.36 149.6 129.75 142.64C147.14 135.69 170.62 126.12 209.75 148.73C248.88 171.34 283.67 173.08 283.67 173.08C283.67 173.08 230.62 153.95 175.84 107.86C121.05 61.77 86.4 115.38 81.23 123.6C76.06 131.82 72.4 146.44 79.1 181.15C85.8 215.86 90.58 236.26 84.54 244.47C78.49 252.69 76.76 258.27 53.93 251.87C31.09 245.48 30.67 245.81 23.67 247.95C18.87 249.72 8.4 253.62 5.95 264.26C3.5 274.89 15.54 275.34 16.7 279.17Z" id="a1yva99ajg"></path><linearGradient id="gradientd2icwlrdw3" gradientUnits="userSpaceOnUse" x1="5.62" y1="275.75" x2="296.74" y2="146.48"><stop style="stop-color: #fda47d;stop-opacity: 1" offset="0%"></stop><stop style="stop-color: #f2509d;stop-opacity: 1" offset="100%"></stop></linearGradient></defs><g><g><g><g><use xlink:href="#a2s9sKoKu" opacity="1" fill="url(#gradientbfyz6j8jz)"></use><g><use xlink:href="#a2s9sKoKu" opacity="1" fill-opacity="0" stroke="#000000" stroke-width="1" stroke-opacity="0"></use></g></g><g><use xlink:href="#bKY5xge7" opacity="1" fill="url(#gradientcaq4I4W2)"></use><g><use xlink:href="#bKY5xge7" opacity="1" fill-opacity="0" stroke="#000000" stroke-width="1" stroke-opacity="0"></use></g></g><g><use xlink:href="#a1yva99ajg" opacity="1" fill="url(#gradientd2icwlrdw3)"></use><g><use xlink:href="#a1yva99ajg" opacity="1" fill-opacity="0" stroke="#000000" stroke-width="1" stroke-opacity="0"></use></g></g></g></g></g></svg>